# xmcd
#
# Track frame offsets: 
#        150
#        18240
#        30776
#        48745
#        68158
#        86440
#        104140
#        118656
#        136188
#        151678
#        165216
#        186031
#        197826
#
# Disc length: 2977 seconds
#
# Revision: 0
# Processed by: cddbd v1.5.2PL0 Copyright (c) Steve Scherf et al.
# Submitted via: ExactAudioCopyFreeDBPlugin 1.0
#
DISCID=9c0b9f0d
DTITLE=Casey Veggies - Live and Grow
DYEAR=2015
DGENRE=Hip-Hop
TTITLE0=I'm The King
TTITLE1=Set It Off
TTITLE2=Actin' Up (feat. Dom Kennedy)
TTITLE3=Backflip (feat. YG and Iamsu!)
TTITLE4=New Face$
TTITLE5=Wonderful (feat. Ty Dolla $ign)
TTITLE6=Tied Up (feat. DeJ Loaf)
TTITLE7=A Little Time
TTITLE8=Life Song (feat. BJ the Chicago Kid)
TTITLE9=Sincerely Casey
TTITLE10=Aw Man
TTITLE11=RIP (feat. Tyler, the Creator)
TTITLE12=I'm Blessed
EXTD=
EXTT0=
EXTT1=
EXTT2=
EXTT3=
EXTT4=
EXTT5=
EXTT6=
EXTT7=
EXTT8=
EXTT9=
EXTT10=
EXTT11=
EXTT12=
PLAYORDER=
